<svg width="640" height="420" viewBox="0 0 640 420" fill="none" xmlns="http://www.w3.org/2000/svg">
  <rect width="640" height="420" rx="28" fill="#0B0B0F" />
  <rect x="36" y="46" width="568" height="328" rx="24" fill="#111827" stroke="#1F2937" />
  <circle cx="140" cy="150" r="44" fill="#1F2937" />
  <circle cx="240" cy="140" r="36" fill="#1F2937" />
  <circle cx="338" cy="156" r="40" fill="#1F2937" />
  <rect x="86" y="206" width="120" height="96" rx="18" fill="#0F172A" stroke="#334155" />
  <rect x="212" y="210" width="112" height="90" rx="18" fill="#0F172A" stroke="#334155" />
  <rect x="330" y="214" width="126" height="86" rx="18" fill="#0F172A" stroke="#334155" />
  <rect x="470" y="204" width="120" height="104" rx="18" fill="#0F172A" stroke="#334155" />
  <path d="M108 284h76" stroke="#34D399" stroke-width="8" stroke-linecap="round" />
  <path d="M234 278h68" stroke="#22D3EE" stroke-width="8" stroke-linecap="round" />
  <path d="M356 276h84" stroke="#FBBF24" stroke-width="8" stroke-linecap="round" />
  <path d="M494 274h72" stroke="#F472B6" stroke-width="8" stroke-linecap="round" />
  <rect x="86" y="322" width="468" height="18" rx="9" fill="#111827" />
  <rect x="86" y="322" width="210" height="18" rx="9" fill="#34D399" />
  <text x="86" y="384" fill="#9CA3AF" font-size="14" font-family="Arial, sans-serif">Ambitious students preparing outside a German university</text>
</svg>
